<?xml version="1.0" encoding="UTF-8"?>
<!DOCTYPE svg PUBLIC "-//W3C//DTD SVG 1.0//EN" "http://www.w3.org/TR/2001/REC-SVG-20010904/DTD/svg10.dtd">
<!-- Creator: CorelDRAW 2018 (64-Bit) -->
<svg xmlns="http://www.w3.org/2000/svg" xml:space="preserve" width="41.6534mm" height="44.5391mm" version="1.0" style="shape-rendering:geometricPrecision; text-rendering:geometricPrecision; image-rendering:optimizeQuality; fill-rule:evenodd; clip-rule:evenodd"
viewBox="0 0 486.96 520.7"
 xmlns:xlink="http://www.w3.org/1999/xlink">
 <defs>
  <style type="text/css">
   <![CDATA[
    .fil0 {fill:#FEFEFE;fill-rule:nonzero}
   ]]>
  </style>
 </defs>
 <g id="Слой_x0020_1">
  <metadata id="CorelCorpID_0Corel-Layer"/>
  <path class="fil0" d="M0 258.35c-0.16,-36.85 4.28,-75.48 16.98,-112.79 24.84,-72.93 75.18,-118.45 149.85,-136.35 52,-12.47 104.53,-12.31 156.39,0.63 72.28,18.03 121.26,62.57 145.97,133.2 10.67,30.49 15.77,62.06 17.2,94.22 1.5,33.45 0.27,66.76 -6.19,99.74 -6.11,31.17 -16.11,60.88 -33.25,87.87 -27.68,43.57 -67.39,70.79 -116.53,84.66 -37.93,10.71 -76.7,12.96 -115.93,9.91 -29.25,-2.28 -57.65,-7.84 -84.7,-19.42 -55.6,-23.79 -92.16,-65.16 -111.94,-121.84 -13.26,-38.01 -17.94,-77.37 -17.85,-119.84zm104.01 -15.53c-0.51,-0.15 -1.01,-0.29 -1.52,-0.45 -5.12,10.19 -11.26,19.97 -13.87,31.23 -12.7,54.75 0.39,103.35 37.38,144.88 26.93,30.25 62.67,43.82 102.47,47.62 21.76,2.08 43.44,0.86 65.03,-1.79 25.28,-3.12 47.49,-13.01 64.98,-31.96 15.78,-17.09 27.58,-36.65 34.42,-58.98 6.94,-22.69 6.87,-45.23 -2.51,-67.34 -5.41,-12.76 -13.58,-23.65 -23.16,-33.56 -17.33,-17.92 -27.94,-39.22 -31.72,-63.86 -1.29,-8.44 -2.34,-16.93 -3.57,-25.38 -0.26,-1.84 -0.77,-3.64 -1.35,-6.31 -17.15,16.75 -27.2,35.94 -29.4,59 -1.68,17.62 1.86,34.5 7.67,51.01 1.62,4.6 3.62,9.11 4.81,13.82 2.42,9.53 1.37,18.39 -6.12,25.71 -12.27,12.03 -28.84,15.1 -44.57,8.15 -12.19,-5.39 -15.79,-11.46 -14.77,-24.67 0.77,-10.06 3.53,-19.61 6.55,-29.2 2.09,-6.66 3.76,-13.76 3.83,-20.68 0.1,-10.85 -5.06,-19.83 -13.08,-27.92 -6.64,9.79 -16.34,13.83 -25.62,19.04 -1.44,-2.06 -2.59,-3.6 -3.64,-5.21 -11.26,-17.28 -11.43,-22.49 0.63,-38.91 11.12,-15.14 22.58,-30.07 34.41,-44.66 11.93,-14.72 17.45,-30.94 13.57,-49.72 -1.33,-6.41 -3.22,-12.8 -5.68,-18.87 -4.5,-11.07 -9.57,-21.91 -14.49,-32.81 -3.28,-7.28 -4.84,-7.83 -13.02,-4.95 0.27,1.86 0.49,3.77 0.84,5.66 4.12,21.86 -0.88,41.38 -15.95,57.72 -8.75,9.48 -18.49,18.05 -27.93,26.88 -6.23,5.84 -12.98,11.14 -19.03,17.16 -10.14,10.06 -18.33,21.56 -23.7,34.91 -7.6,18.88 -7.34,38.06 -2.49,57.52 1.95,7.8 3.51,15.72 4.84,23.65 1.28,7.59 -0.81,12.18 -6.1,15.11 -12.58,6.94 -26.39,1.83 -30.76,-11.74 -1.71,-5.3 -2.6,-10.9 -3.58,-16.41 -1.4,-7.87 -2.54,-15.79 -3.79,-23.69z"/>
 </g>
</svg>
